<svg xmlns="http://www.w3.org/2000/svg" viewBox="-4924.402 -3239.676 2658.952 1043.176">
  <defs>
    <style>
      .cls-1 {
        fill: #17478f;
      }

      .cls-2 {
        fill: #0189bb;
      }

      .cls-3 {
        fill: #fff;
        stroke: #a92686;
        stroke-miterlimit: 10;
        stroke-width: 4px;
      }
    </style>
  </defs>
  <g id="Group_251" data-name="Group 251" transform="translate(-4924.389 -3239.676)">
    <g id="Group_1" data-name="Group 1" transform="translate(-0.014)">
      <path id="Path_3" data-name="Path 3" class="cls-1" d="M1301.811,982.773c-51.668,0-105.953-14.389-161.545-42.512-39.242-20.275-79.137-40.55-117.725-59.517-92.218-46.436-187.052-94.18-277.962-145.848-55.592-31.393-162.2-84.37-247.877-126.882-42.512-20.929-79.137-39.242-100.72-50.36-30.085-15.7-60.825-31.393-91.564-47.09-48.4-24.2-98.1-49.706-145.848-75.867C81.394,392.839,35.611,343.787,15.991,280.346-2.976,220.829,2.91,161.967,31.687,113.569c29.431-49.052,80.446-82.408,143.232-94.18C225.28,10.232,282.834,5.654,350.853,5.654,600.692,5,865.574,5,1137,5c357.1,0,736.436,0,1160.9.654,58.863,0,126.882,3.924,189.668,34.009,45.128,21.583,81.1,62.787,98.1,114.455s13.081,107.915-11.119,152.389c-30.085,56.246-75.213,98.758-137.346,130.152-74.559,38.588-151.081,77.829-224.332,115.763-53.63,27.469-107.26,55.592-160.891,83.062q-252.128,129.5-505.564,259c-11.118,5.886-22.891,11.773-34.01,17.659-29.431,15.043-59.517,31.393-89.6,44.474C1383.565,973.617,1343.015,982.773,1301.811,982.773Z" transform="translate(27.918 27.701)"/>
      <path id="Path_4" data-name="Path 4" class="cls-2" d="M1164.246,65.4c357.1,0,737.09,0,1162.209.654,54.938,0,119.033,3.924,175.934,30.739,37.28,17.659,66.711,52.322,80.445,94.834,14.389,43.166,11.119,89.6-9.156,126.882-26.815,49.706-67.365,88.294-122.957,116.417-74.559,37.934-150.427,77.175-223.678,115.109-53.63,27.469-107.261,55.592-161.545,83.062-172.01,88.294-349.251,179.2-504.91,259-11.119,5.886-22.891,11.773-34.01,17.659-30.085,15.7-58.208,30.739-87.64,43.166-36.626,15.7-71.943,23.545-108.569,23.545-47.09,0-95.488-13.081-146.5-39.242-39.242-20.275-79.138-40.55-118.379-60.171-91.564-45.782-186.4-93.526-276-145.194-56.246-32.047-163.507-85.024-249.839-128.19-42.512-20.929-78.483-39.242-100.066-49.706-30.739-15.7-61.479-31.393-91.564-47.09-47.744-24.2-97.45-49.706-145.194-75.213-69.981-35.318-110.531-78.484-128.19-133.422-15.7-50.36-11.118-100.066,13.081-139.962,24.853-41.2,67.365-68.673,121-78.483,48.4-9.156,103.991-13.081,170.047-13.081C628.6,65.4,892.824,65.4,1164.246,65.4m0-65.4Q771.829,0,378.758.654c-60.825,0-122.3,3.27-181.82,14.389C47.819,42.512-32.626,175.934,12.5,317.858c25.507,81.754,86.332,134.73,159.583,173.318,78.483,41.858,158.929,81.754,238.066,122.957,65.4,34.009,265.536,130.152,347.289,176.588,129.5,73.905,264.228,138,397,206.019,58.208,30.085,116.417,46.436,176.588,46.436,44.474,0,89.6-9.156,134.73-29.431,42.512-18.967,83.716-41.858,125.573-62.787,168.739-86.332,336.825-172.664,505.564-259,128.19-66.057,256.379-132.768,385.223-198.825,64.749-33.355,115.763-79.137,151.081-143.886,59.517-109.877,11.772-259-101.375-311.972C2467.072,6.54,2397.745.654,2327.763.654Q1745.024-.327,1164.246,0Z" transform="translate(0.014)"/>
    </g>
    <g id="Group_2" data-name="Group 2" transform="translate(190.398 141.761)">
      <path id="Path_5" data-name="Path 5" class="cls-3" d="M379.005,212.022H29.1c36.626-66.057,26.815-151.735,113.147-177.9a272.97,272.97,0,0,1,79.137-11.773C460.1,21.7,698.171,21.7,936.892,21.7c9.811,0,20.275,1.962,35.972,3.27-17.659,46.436-28.777,90.91-50.36,129.5-28.123,49.052-81.1,60.825-133.422,64.095-47.744,3.27-96.142,1.962-143.886,0-24.2-.654-34.664,7.194-42.512,30.085-30.739,94.18-65.4,187.706-95.488,281.886-13.081,41.2-38.588,64.749-79.791,67.365-56.246,3.27-113.147.654-175.28.654C294.636,471.018,335.839,345.444,379.005,212.022Z" transform="translate(-29.1 -21.537)"/>
      <path id="Path_6" data-name="Path 6" class="cls-3" d="M455.132,601.308c21.583-67.365,41.858-130.152,62.133-192.938s41.2-125.574,64.095-194.247H230.8c22.237-54.284,34.664-105.3,62.133-146.5,29.431-43.82,85.024-44.474,134.076-45.128,172.663-1.308,345.981-.654,518.645-.654H1131.4c12.427,0,24.853,1.308,45.128,2.616-18.967,48.4-30.74,94.18-53.63,133.422-28.777,48.4-82.408,58.209-134.73,61.479-46.436,2.616-93.526,1.962-139.962,0-26.161-1.308-35.972,8.5-43.82,32.7-28.777,90.256-62.787,178.55-90.256,268.806-15.7,52.976-48.4,78.483-100.72,80.446C565.009,603.27,514.649,601.308,455.132,601.308Z" transform="translate(1088.376 -21.675)"/>
      <path id="Path_7" data-name="Path 7" class="cls-3" d="M848.836,21.7C826.6,81.217,808.287,132.231,789.32,183.245c-36.626,97.45-75.867,193.592-110.531,291.7-30.085,83.716-92.218,123.611-174.626,129.5-97.45,7.194-196.209,4.578-294.313,5.886-32.7.654-64.749,0-97.45,0,.654-94.18,52.322-149.773,139.308-153.7,28.123-1.308,56.247-.654,84.37-1.308,94.834-1.308,149.773-37.28,183.782-127.536,25.507-67.365,47.09-136.692,69.981-205.365C614.694,45.9,645.433,22.354,724.571,22.354,763.159,21.7,801.092,21.7,848.836,21.7Z" transform="translate(432.406 -21.537)"/>
    </g>
  </g>
</svg>
